<svg xmlns="http://www.w3.org/2000/svg" viewBox="0 0 800 450"><rect width="800" height="450" rx="28" fill="#f7f9fd"/><rect x="24" y="24" width="752" height="402" rx="20" fill="#fff" stroke="#dfe6f1"/><rect x="46" y="46" width="708" height="58" rx="14" fill="#f3f6fb"/><text x="68" y="82" font-family="Arial" font-size="24" font-weight="700" fill="#10213f">PRA Tax Operations</text><circle cx="710" cy="75" r="12" fill="#16a36a"/><g fill="#fff" stroke="#dfe6f1"><rect x="46" y="128" width="154" height="104" rx="16"/><rect x="216" y="128" width="154" height="104" rx="16"/><rect x="386" y="128" width="154" height="104" rx="16"/><rect x="556" y="128" width="198" height="104" rx="16"/></g><text x="64" y="158" font-family="Arial" font-size="12" fill="#667085">Returns Filed</text><text x="64" y="198" font-family="Arial" font-size="30" font-weight="700" fill="#315bff">18,940</text><text x="234" y="158" font-family="Arial" font-size="12" fill="#667085">Payments</text><text x="234" y="198" font-family="Arial" font-size="30" font-weight="700" fill="#7b3cff">8,210</text><text x="404" y="158" font-family="Arial" font-size="12" fill="#667085">API Success</text><text x="404" y="198" font-family="Arial" font-size="30" font-weight="700" fill="#16a36a">99.5%</text><text x="574" y="158" font-family="Arial" font-size="12" fill="#667085">Reports</text><text x="574" y="198" font-family="Arial" font-size="30" font-weight="700" fill="#10213f">1,240</text><rect x="46" y="254" width="452" height="132" rx="16" fill="#f8faff" stroke="#dfe6f1"/><polyline points="72,350 128,330 184,338 240,302 296,314 352,278 408,288 466,260" fill="none" stroke="#315bff" stroke-width="7" stroke-linecap="round"/><rect x="516" y="254" width="238" height="132" rx="16" fill="#f8faff" stroke="#dfe6f1"/><circle cx="635" cy="320" r="42" fill="none" stroke="#e4eaf4" stroke-width="16"/><path d="M635 278a42 42 0 0 1 34 67" fill="none" stroke="#7b3cff" stroke-width="16" stroke-linecap="round"/></svg>